<?xml version="1.0" encoding="UTF-8" standalone="no"?>
<!-- Created with Inkscape (http://www.inkscape.org/) -->

<svg
   width="128.0px"
   height="128.0px"
   viewBox="0 0 128.0 128.0"
   version="1.1"
   id="SVGRoot"
   sodipodi:docname="github-large.svg"
   inkscape:version="1.1 (c68e22c387, 2021-05-23)"
   xmlns:inkscape="http://www.inkscape.org/namespaces/inkscape"
   xmlns:sodipodi="http://sodipodi.sourceforge.net/DTD/sodipodi-0.dtd"
   xmlns="http://www.w3.org/2000/svg"
   xmlns:svg="http://www.w3.org/2000/svg">
  <sodipodi:namedview
     id="namedview1561"
     pagecolor="#000000"
     bordercolor="#666666"
     borderopacity="1.0"
     inkscape:pageshadow="2"
     inkscape:pageopacity="0"
     inkscape:pagecheckerboard="0"
     inkscape:document-units="px"
     showgrid="true"
     inkscape:zoom="4.7393378"
     inkscape:cx="45.048487"
     inkscape:cy="67.519981"
     inkscape:window-width="2560"
     inkscape:window-height="1018"
     inkscape:window-x="0"
     inkscape:window-y="38"
     inkscape:window-maximized="1"
     inkscape:current-layer="layer1">
    <inkscape:grid
       type="xygrid"
       id="grid1624" />
  </sodipodi:namedview>
  <defs
     id="defs1556" />
  <g
     inkscape:label="Layer 1"
     inkscape:groupmode="layer"
     id="layer1">
    <path
       d="M 64.000517,0 C 28.658641,0 0,29.377694 0,65.619782 c 0,28.993023 18.338096,53.590528 43.76746,62.267688 3.198542,0.60733 4.372824,-1.42374 4.372824,-3.15695 0,-1.56478 -0.05935,-6.734 -0.08691,-12.21726 C 30.248369,116.48282 26.4913,104.77085 26.4913,104.77085 23.579974,97.186 19.3852,95.169175 19.3852,95.169175 c -5.806764,-4.072785 0.437707,-3.98911 0.437707,-3.98911 6.426759,0.461831 9.81077,6.762246 9.81077,6.762246 5.708199,10.031999 14.972102,7.131709 18.624248,5.455009 0.574423,-4.240127 2.233045,-7.13715 4.063356,-8.774735 -14.215389,-1.659321 -29.158876,-7.286016 -29.158876,-32.43011 0,-7.16431 2.500119,-13.018116 6.594211,-17.613576 -0.664508,-1.653888 -2.85516,-8.327031 0.619996,-17.36582 0,0 5.374356,-1.76364 17.604699,6.726389 5.105162,-1.453943 10.580201,-2.183088 16.019206,-2.208081 5.439006,0.025 10.918285,0.754138 16.032987,2.208081 12.215506,-8.490029 17.582443,-6.726389 17.582443,-6.726389 3.483633,9.038789 1.291921,15.711932 0.627412,17.36582 4.103631,4.59546 6.586791,10.449266 6.586791,17.613576 0,25.203857 -14.972098,30.753397 -29.223524,32.377951 2.295574,2.036384 4.341032,6.029844 4.341032,12.152054 0,8.77909 -0.07416,15.8456 -0.07416,18.00804 0,1.74625 1.152024,3.79232 4.396136,3.14803 C 109.68522,119.19185 128,94.603025 128,65.619782 127.99998,29.377694 99.345577,0 64.00052,0"
       style="fill:#ffffff;fill-opacity:1;fill-rule:evenodd;stroke:none;stroke-width:0.107315"
       id="path106" />
    <path
       d="m 24.240244,94.216174 c -0.140956,0.327088 -0.641193,0.423795 -1.096916,0.19995 -0.464202,-0.214074 -0.724918,-0.658513 -0.574424,-0.985601 0.137778,-0.335776 0.639073,-0.428139 1.102215,-0.205378 0.465262,0.215158 0.730218,0.663949 0.569125,0.991029 v 0"
       style="fill:#ffffff;fill-opacity:1;fill-rule:nonzero;stroke:none;stroke-width:0.107315"
       id="path108" />
    <path
       d="m 26.832567,97.180572 c -0.305228,0.290136 -0.901907,0.155386 -1.30676,-0.303177 -0.418629,-0.457487 -0.497056,-1.069267 -0.187588,-1.363756 0.314767,-0.290137 0.893429,-0.154302 1.313119,0.303176 0.41863,0.462915 0.500236,1.07036 0.181229,1.363757 v 0"
       style="fill:#ffffff;fill-opacity:1;fill-rule:nonzero;stroke:none;stroke-width:0.107315"
       id="path110" />
    <path
       d="m 29.356003,100.95995 c -0.392133,0.27927 -1.033326,0.0174 -1.429699,-0.56615 -0.392134,-0.583531 -0.392134,-1.28333 0.0085,-1.563687 0.397433,-0.280357 1.029087,-0.02828 1.430759,0.550933 0.391074,0.592221 0.391074,1.293114 -0.0095,1.578904 v 0"
       style="fill:#ffffff;fill-opacity:1;fill-rule:nonzero;stroke:none;stroke-width:0.107315"
       id="path112" />
    <path
       d="m 32.813142,104.61111 c -0.350801,0.39663 -1.097975,0.29014 -1.644843,-0.25102 -0.559586,-0.52919 -0.71538,-1.28008 -0.363519,-1.6767 0.35504,-0.39772 1.106453,-0.28579 1.657561,0.25102 0.555346,0.52811 0.724918,1.28442 0.350801,1.6767 v 0"
       style="fill:#ffffff;fill-opacity:1;fill-rule:nonzero;stroke:none;stroke-width:0.107315"
       id="path114" />
    <path
       d="m 37.58234,106.73117 c -0.154734,0.51399 -0.874353,0.74762 -1.599271,0.52921 -0.723859,-0.22494 -1.197599,-0.82695 -1.051344,-1.34637 0.150496,-0.51725 0.873294,-0.76066 1.603511,-0.52703 0.722799,0.22385 1.197598,0.82151 1.047104,1.34419 v 0"
       style="fill:#ffffff;fill-opacity:1;fill-rule:nonzero;stroke:none;stroke-width:0.107315"
       id="path116" />
    <path
       d="m 42.819979,107.12454 c 0.01802,0.54115 -0.596679,0.98995 -1.357632,0.99863 -0.76519,0.0185 -1.384127,-0.41944 -1.392605,-0.95191 0,-0.54658 0.600919,-0.99102 1.36611,-1.00406 0.760952,-0.0152 1.384127,0.41945 1.384127,0.95734 v 0"
       style="fill:#ffffff;fill-opacity:1;fill-rule:nonzero;stroke:none;stroke-width:0.107315"
       id="path118" />
    <path
       d="m 47.6941,106.27369 c 0.09115,0.52811 -0.437707,1.07035 -1.193359,1.21379 -0.742936,0.14018 -1.43076,-0.18582 -1.525084,-0.70958 -0.0922,-0.54115 0.446184,-1.0834 1.18806,-1.22358 0.756713,-0.13474 1.433939,0.18256 1.530383,0.71937 v 0"
       style="fill:#ffffff;fill-opacity:1;fill-rule:nonzero;stroke:none;stroke-width:0.107315"
       id="path120" />
  </g>
</svg>
