<?xml version="1.0" encoding="UTF-8" standalone="no"?>
<!-- Created with Inkscape (http://www.inkscape.org/) -->

<svg
   width="16.0px"
   height="16.0px"
   viewBox="0 0 16.0 16.0"
   version="1.1"
   id="SVGRoot"
   sodipodi:docname="github-small.svg"
   inkscape:version="1.1 (c68e22c387, 2021-05-23)"
   xmlns:inkscape="http://www.inkscape.org/namespaces/inkscape"
   xmlns:sodipodi="http://sodipodi.sourceforge.net/DTD/sodipodi-0.dtd"
   xmlns="http://www.w3.org/2000/svg"
   xmlns:svg="http://www.w3.org/2000/svg">
  <sodipodi:namedview
     id="namedview1414"
     pagecolor="#000000"
     bordercolor="#666666"
     borderopacity="1.0"
     inkscape:pageshadow="2"
     inkscape:pageopacity="0"
     inkscape:pagecheckerboard="true"
     inkscape:document-units="px"
     showgrid="true"
     inkscape:zoom="37.914702"
     inkscape:cx="6.7915606"
     inkscape:cy="9.0729975"
     inkscape:window-width="2560"
     inkscape:window-height="1018"
     inkscape:window-x="0"
     inkscape:window-y="38"
     inkscape:window-maximized="1"
     inkscape:current-layer="layer1">
    <inkscape:grid
       type="xygrid"
       id="grid1477" />
  </sodipodi:namedview>
  <defs
     id="defs1409" />
  <g
     inkscape:label="Layer 1"
     inkscape:groupmode="layer"
     id="layer1">
    <path
       d="M 7.999263,0 C 3.5821848,0 0,3.6723362 0,8.2027093 c 0,3.6239967 2.2920287,6.6981247 5.4710089,7.7827557 0.4002577,0.07553 0.5461188,-0.177751 0.5461188,-0.395282 0,-0.19487 -0.00688,-0.710498 -0.010806,-1.394813 -2.2252366,0.495486 -2.6947415,-1.099737 -2.6947415,-1.099737 -0.3639154,-0.947667 -0.888425,-1.199942 -0.888425,-1.199942 -0.7263575,-0.508578 0.055005,-0.498507 0.055005,-0.498507 0.8029713,0.05791 1.2253291,0.845447 1.2253291,0.845447 0.7135887,1.253318 1.8726177,0.891271 2.3283712,0.681294 0.072685,-0.529727 0.2794437,-0.89127 0.5078116,-1.096212 -1.7763588,-0.206956 -3.644065,-0.910909 -3.644065,-4.0540218 0,-0.895299 0.3118573,-1.6279538 0.823598,-2.2009852 -0.082507,-0.2074592 -0.3570396,-1.0418294 0.078578,-2.1707721 0,0 0.6713527,-0.2205516 2.199699,0.8409162 C 6.6354393,4.0605676 7.3200516,3.96993 8.0002448,3.9664053 c 0.6797014,0.00352 1.3638229,0.094162 2.0027622,0.2764448 1.527364,-1.0614678 2.197735,-0.8409162 2.197735,-0.8409162 0.4366,1.1289427 0.162067,1.9633129 0.08005,2.1707721 0.512723,0.5730314 0.822125,1.3056862 0.822125,2.2009852 0,3.1511698 -1.870653,3.8445478 -3.6524144,4.0474748 0.286811,0.253283 0.5426805,0.753804 0.5426805,1.518685 0,1.096716 -0.00982,1.981441 -0.00982,2.250332 0,0.219545 0.1443879,0.474841 0.5500479,0.394778 C 13.709936,14.897812 16,11.825699 16,8.2027093 16,3.6723362 12.417815,0 7.9992641,0"
       style="fill:#ffffff;fill-opacity:1;fill-rule:evenodd;stroke:none;stroke-width:0.049729"
       id="path104" />
  </g>
</svg>
